<svg width="103" height="32" viewBox="0 0 103 32" fill="none" xmlns="http://www.w3.org/2000/svg">
<g id="logo">
<g id="Group">
<path id="Vector" d="M84.2744 7.32877C83.8688 7.54211 83.3821 8.15701 83.1692 8.69662C82.9563 9.27387 82.9664 10.3531 83.1996 10.9805C83.4024 11.5578 84.0006 12.2605 84.3758 12.3735C84.6191 12.4488 84.6293 12.4864 84.6293 13.5656V14.67L84.1527 14.9711C83.8587 15.1468 83.5444 15.4731 83.3619 15.7994C83.0881 16.2888 83.0577 16.4268 83.0577 17.3178C83.0577 18.2088 83.0881 18.3468 83.3619 18.8488C83.808 19.6143 84.3961 19.9907 85.1971 20.0033L85.846 20.0158L87.5696 22.1492C89.0499 23.9688 89.2933 24.3201 89.2426 24.5711C89.1615 25.0103 89.4555 26.1523 89.7698 26.6166C90.6012 27.8339 92.3959 27.746 93.1563 26.4409C93.3084 26.1774 93.4706 25.8386 93.501 25.7131C93.5619 25.4998 93.6734 25.4747 94.5656 25.4747H95.5593L95.6708 25.8888C95.8026 26.3656 96.2893 26.9805 96.7861 27.2943C97.3134 27.6205 98.3475 27.5201 98.8545 27.0809C99.473 26.5664 99.7772 25.9139 99.8177 25.0103C99.8887 23.6801 99.3108 22.6637 98.236 22.2245C97.3539 21.8605 96.1676 22.5005 95.7519 23.5547L95.539 24.0943H94.5251L93.501 24.0817L93.3185 23.5923C93.0042 22.7515 92.1322 22.099 91.311 22.0864C91.0778 22.0864 90.7026 22.237 90.3477 22.4629L89.7597 22.8519L88.2794 21.0198L86.799 19.1876L87.0931 18.4723C87.3364 17.8825 87.377 17.6566 87.3263 17.1672C87.235 16.1507 86.8092 15.3601 86.1299 14.9209L85.7446 14.6825V13.5531V12.4362L86.1907 12.1601C88.178 10.9429 87.377 7.14054 85.1362 7.15309C84.832 7.16564 84.4366 7.24093 84.2744 7.32877ZM85.4708 8.64642C86.1704 8.9727 86.3732 9.95152 85.8865 10.6543C85.6736 10.968 85.5519 11.0433 85.2173 11.0433C84.7104 11.0433 84.467 10.8801 84.2642 10.3907C83.9195 9.57505 84.3352 8.72171 85.1565 8.54603C85.1971 8.54603 85.339 8.58368 85.4708 8.64642ZM85.6432 16.2511C86.2414 16.6401 86.3428 17.5939 85.8561 18.2088C85.3593 18.8111 84.5887 18.6856 84.2744 17.9452C84.0817 17.4684 84.0817 17.1296 84.2947 16.6903C84.5786 16.0754 85.1058 15.9123 85.6432 16.2511ZM98.378 23.9813C98.7633 24.4833 98.7633 25.2237 98.378 25.7131C98.0028 26.1774 97.3134 26.1774 96.9382 25.7131C96.5428 25.2237 96.5428 24.4833 96.9382 23.9813C97.4046 23.3915 97.9217 23.3915 98.378 23.9813ZM92.0613 23.8935C92.5277 24.4331 92.5479 25.2237 92.112 25.7256C91.1386 26.8425 89.7698 25.1107 90.7026 23.9562C91.098 23.4794 91.676 23.4543 92.0613 23.8935Z" fill="#0074A6"/>
<path id="Vector_2" d="M90.6113 7.29099C89.7393 7.71766 89.1209 8.96001 89.2222 10.0643C89.3541 11.4196 90.1449 12.4235 91.1588 12.5239C92.1119 12.6243 92.923 12.0596 93.359 11.0306C93.5719 10.5161 93.6226 9.39923 93.4604 8.87217C93.2982 8.37021 92.7203 7.62981 92.2843 7.39138C91.8483 7.1404 91.0169 7.09021 90.6113 7.29099ZM92.1626 9.0353C92.5175 9.53727 92.5276 10.1271 92.1829 10.6416C91.5543 11.5702 90.4085 11.0557 90.4085 9.85099C90.4085 9.26119 90.5302 8.99766 90.9662 8.72158C91.3717 8.45805 91.8179 8.57099 92.1626 9.0353Z" fill="#0074A6"/>
<path id="Vector_3" d="M96.7455 7.39137C95.904 7.86824 95.4072 8.9349 95.5086 10.102L95.5593 10.7545L93.9471 12.7498L92.335 14.7451L91.5441 14.7075C90.8851 14.6824 90.7026 14.72 90.3579 14.9584C89.0296 15.9122 88.8268 18.0329 89.9422 19.3004C91.0372 20.5553 92.8217 20.1035 93.3996 18.422C93.6024 17.8071 93.5923 16.8282 93.3793 16.1757L93.2171 15.6486L94.6974 13.8416C95.5086 12.8627 96.2183 12.0471 96.269 12.0471C96.3197 12.0471 96.5123 12.1349 96.6948 12.2604C97.4857 12.7373 98.4489 12.5867 99.0978 11.8839C100.598 10.2526 99.6555 7.15294 97.6581 7.15294C97.3843 7.15294 96.9686 7.26588 96.7455 7.39137ZM98.1853 8.78432C98.3982 8.94745 98.5503 9.18588 98.6314 9.52471C98.7328 9.95138 98.7227 10.0769 98.5503 10.4282C98.4388 10.6792 98.2157 10.9176 97.9927 11.018C97.6581 11.1812 97.5769 11.1686 97.2322 10.9678C96.6948 10.6416 96.4921 9.96392 96.7354 9.33647C96.8875 8.92236 97.3437 8.54589 97.7088 8.53334C97.7899 8.53334 98.0028 8.64628 98.1853 8.78432ZM92.0917 16.4894C92.7608 17.3177 92.335 18.56 91.3921 18.5726C90.3883 18.5726 90.0131 16.8533 90.8952 16.2635C91.3515 15.9498 91.7064 16.0126 92.0917 16.4894Z" fill="#0074A6"/>
<g id="Vector_4">
<path d="M7.47018 10.0392C7.05447 10.0894 6.41571 10.2275 6.0507 10.3529C5.26998 10.6039 3.71869 11.4196 3.71869 11.5702C3.71869 11.6329 3.80994 11.8965 3.92147 12.1726L4.12426 12.662L4.85428 12.2353C5.68569 11.7459 6.53738 11.4447 7.39921 11.3318L7.97714 11.2565V17.9326V24.5961H8.58549H9.19384V17.9326V11.2565L9.78191 11.3318C10.6235 11.4447 11.4346 11.7333 12.3066 12.2353L13.0569 12.662L13.2698 12.0973C13.3813 11.7835 13.4523 11.5075 13.432 11.4824C13.4219 11.4698 13.1785 11.3067 12.8946 11.131C12.0835 10.629 10.8262 10.1898 9.77177 10.0518C8.7173 9.90118 8.60577 9.90118 7.47018 10.0392Z" fill="#0074A6"/>
<path d="M7.47018 10.0392C7.05447 10.0894 6.41571 10.2275 6.0507 10.3529C5.26998 10.6039 3.71869 11.4196 3.71869 11.5702C3.71869 11.6329 3.80994 11.8965 3.92147 12.1726L4.12426 12.662L4.85428 12.2353C5.68569 11.7459 6.53738 11.4447 7.39921 11.3318L7.97714 11.2565V17.9326V24.5961H8.58549H9.19384V17.9326V11.2565L9.78191 11.3318C10.6235 11.4447 11.4346 11.7333 12.3066 12.2353L13.0569 12.662L13.2698 12.0973C13.3813 11.7835 13.4523 11.5075 13.432 11.4824C13.4219 11.4698 13.1785 11.3067 12.8946 11.131C12.0835 10.629 10.8262 10.1898 9.77177 10.0518C8.7173 9.90118 8.60577 9.90118 7.47018 10.0392Z" stroke="#0074A6"/>
</g>
<path id="Vector_5" d="M18.1569 10.0267C15.6424 10.5286 14.3344 12.5239 14.9123 14.9835C15.105 15.7867 15.6119 16.5773 16.1696 16.9286L16.5245 17.1545L15.9769 17.4682C14.6183 18.2463 13.9795 19.9529 14.4054 21.7349C14.7095 23.0275 15.6119 23.931 17.1024 24.4329C17.9541 24.7216 19.9819 24.7216 21.0567 24.4329C21.8779 24.2071 23.1352 23.5043 23.4292 23.1027C23.6016 22.8769 23.5915 22.8392 23.3887 22.3498L23.1758 21.8227L22.7499 22.1867C22.1111 22.7388 21.442 23.0651 20.5294 23.2784C19.4547 23.5294 18.5422 23.5169 17.5891 23.2282C16.2203 22.8267 15.4801 21.9106 15.4801 20.6055C15.4801 19.8024 15.6119 19.3757 16.0175 18.8486C16.6259 18.0706 17.1936 17.9075 19.5155 17.8447L21.5636 17.7945V17.1922V16.5898L19.5662 16.5396L17.5587 16.502L17.001 16.1129C15.7539 15.2471 15.6119 13.2894 16.7171 12.1098C17.2545 11.5451 17.873 11.3067 18.9781 11.2063C20.0732 11.1184 21.1986 11.3694 22.1314 11.909L22.7499 12.2604L22.8817 11.8086C22.9527 11.5576 23.0338 11.2816 23.0642 11.1937C23.1251 10.9804 22.1517 10.4533 21.2899 10.2275C20.4078 10.0016 18.826 9.90118 18.1569 10.0267Z" fill="#0074A6"/>
<path id="Vector_6" d="M30.0298 10.0392C29.0159 10.2902 28.4278 10.6792 27.7282 11.5577L27.0388 12.4235V11.2314V10.0392H26.4811H25.9235V17.3177V24.5961H26.5318H27.1402V19.9529C27.1402 14.7702 27.201 14.1553 27.7891 13.0761C28.5089 11.7584 29.4924 11.2314 31.0843 11.3192C32.2199 11.382 32.7573 11.6329 33.3656 12.3608C34.2984 13.4902 34.4404 14.5945 34.4404 20.48V24.5961H34.998H35.5557V19.6643C35.5557 14.3686 35.505 13.7914 35.0082 12.5741C34.2173 10.6416 32.0577 9.53726 30.0298 10.0392Z" fill="#0074A6"/>
<path id="Vector_7" d="M41.5378 9.98902C40.8686 10.0643 39.9358 10.2777 39.3579 10.5035C38.6481 10.7671 37.4821 11.4322 37.4821 11.5702C37.4821 11.6329 37.5734 11.8965 37.6849 12.1726L37.8877 12.662L38.3135 12.3608C38.932 11.9467 40.3616 11.4196 41.1018 11.3318L41.7406 11.2565V17.9326V24.5961H42.3489H42.9573V17.9326V11.2565L43.5555 11.3318C44.2449 11.4196 45.6441 11.9467 46.3133 12.3608L46.7797 12.662L46.9927 12.0973L47.2157 11.5451L46.9825 11.3569C45.8773 10.4659 43.2716 9.81334 41.5378 9.98902Z" fill="#0074A6"/>
<path id="Vector_8" d="M53.1674 10.0392C51.6567 10.3404 50.6428 10.9302 49.6897 12.1098C48.7467 13.2643 48.2702 14.4188 48.0471 16.113C47.9052 17.2047 47.9052 17.4306 48.0471 18.5224C48.473 21.6973 50.1764 23.8557 52.8125 24.5333C55.5197 25.2486 58.3384 23.7051 59.5652 20.8565C60.0215 19.7898 60.2243 18.7106 60.2243 17.3177C60.2243 15.1341 59.7173 13.578 58.5209 12.1098C57.4461 10.7796 56.2294 10.1522 54.4652 9.98903C54.0799 9.96393 53.4919 9.97648 53.1674 10.0392ZM56.3714 11.8965C59.9911 14.1177 59.9911 20.5177 56.3612 22.7514L55.4994 23.2784H54.1205H52.7416L51.9507 22.8141C50.9976 22.2494 50.1966 21.3459 49.7708 20.342C48.4324 17.2424 49.3247 13.4526 51.7581 11.9341C52.6402 11.382 52.9849 11.2941 54.3334 11.3318C55.4994 11.3694 55.5298 11.382 56.3714 11.8965Z" fill="#0074A6"/>
<path id="Vector_9" d="M63.1342 17.3051V24.5961H63.7426H64.3509V22.2745V19.9529H66.4193H68.4877L69.8261 22.2745L71.1644 24.5961H71.8235H72.4825L72.2392 24.182C71.8843 23.6047 69.7754 19.9153 69.6943 19.7396C69.6436 19.6518 69.8159 19.4886 70.1607 19.2878C71.6308 18.4596 72.3304 16.9161 72.2392 14.6949C72.1682 12.9255 71.57 11.6831 70.4648 10.9428C69.3698 10.2275 68.9338 10.1396 65.9022 10.0769L63.1342 10.0141V17.3051ZM68.3255 11.4322C70.1911 11.7835 71.0529 12.9255 71.0529 14.9961C71.0529 16.1882 70.7791 17.0165 70.1607 17.6941C69.4002 18.5224 69.0555 18.6102 66.5613 18.6729L64.3509 18.7231V15.0086V11.2941H65.9833C66.8756 11.2941 67.93 11.3569 68.3255 11.4322Z" fill="#0074A6"/>
<path id="Vector_10" d="M74.0845 10.6667V11.2941H75.3012H76.5179V17.3177V23.3412H75.3012H74.0845V23.9686V24.5961H77.0755H80.0666V23.9686V23.3537L78.8803 23.3161L77.6839 23.2784V17.3177V11.3569L78.8803 11.3192L80.0666 11.2816V10.6667V10.0392H77.0755H74.0845V10.6667Z" fill="#0074A6"/>
<path id="Vector_11" d="M96.7455 14.8831C95.5897 15.6235 95.1739 17.1545 95.762 18.5851C96.1473 19.5388 96.7658 20.0031 97.658 20.0031C98.1954 20.0031 98.3881 19.9404 98.7936 19.6267C99.696 18.949 100.081 17.4306 99.6453 16.251C99.4527 15.7114 98.8545 14.9961 98.4489 14.7953C98.0636 14.6196 97.0801 14.6573 96.7455 14.8831ZM98.3374 16.4267C98.6111 16.7278 98.672 16.8784 98.672 17.3177C98.672 17.7569 98.6111 17.9075 98.3374 18.2086C98.1143 18.4596 97.9014 18.5726 97.658 18.5726C97.1207 18.5726 96.6441 17.9953 96.6441 17.3428C96.6441 16.2133 97.658 15.6737 98.3374 16.4267Z" fill="#0074A6"/>
<path id="Vector_12" d="M84.6292 22.1992C83.5038 22.6259 82.9563 23.5671 83.0272 24.9851C83.0577 25.6878 83.1185 25.9388 83.3618 26.378C84.2642 27.9843 86.3529 27.8212 87.0626 26.102C87.3364 25.4118 87.3871 24.9977 87.2553 24.2447C87.0221 22.8141 85.7141 21.7977 84.6292 22.1992ZM85.8561 23.9561C86.505 24.7592 86.0183 26.102 85.0855 26.102C84.6596 26.102 84.1223 25.3616 84.1223 24.7843C84.1223 24.1192 84.5684 23.5922 85.1362 23.5922C85.4708 23.5922 85.6229 23.6675 85.8561 23.9561Z" fill="#0074A6"/>
</g>
</g>
</svg>
