<svg width="32" height="32" viewBox="0 0 32 32" fill="none" xmlns="http://www.w3.org/2000/svg">
<path d="M30.768 12.23C30.8686 12.1324 30.9468 12.0141 30.9972 11.8833C31.0477 11.7525 31.0692 11.6123 31.0602 11.4724C31.0513 11.3325 31.0121 11.1962 30.9455 11.0728C30.8788 10.9495 30.7862 10.8421 30.674 10.758C26.4103 7.65743 21.2719 5.99132 16 6.00003C10.518 6.00003 5.446 7.76403 1.326 10.758C1.21369 10.842 1.12091 10.9492 1.05405 11.0725C0.987189 11.1957 0.947842 11.332 0.938717 11.4719C0.929593 11.6118 0.950907 11.752 1.00119 11.8829C1.05148 12.0138 1.12954 12.1322 1.23 12.23C1.40519 12.4015 1.63531 12.5055 1.87975 12.5238C2.12419 12.5421 2.36723 12.4735 2.566 12.33C6.4764 9.50826 11.1778 7.99292 16 8.00003C21.014 8.00003 25.654 9.60403 29.432 12.328C29.842 12.624 30.412 12.588 30.768 12.23Z" fill="#2DEE0E"/>
<path d="M26.458 16.542C26.5611 16.4426 26.6407 16.3214 26.691 16.1874C26.7414 16.0533 26.7613 15.9098 26.7492 15.7671C26.7371 15.6244 26.6934 15.4862 26.6213 15.3625C26.5491 15.2388 26.4503 15.1327 26.332 15.052C23.2565 13.0549 19.667 11.9946 16 12C12.19 12 8.64 13.12 5.668 15.052C5.5491 15.1323 5.4497 15.2381 5.37709 15.3618C5.30449 15.4855 5.26053 15.6239 5.24844 15.7669C5.23635 15.9098 5.25645 16.0536 5.30725 16.1878C5.35805 16.3219 5.43827 16.443 5.542 16.542C5.71241 16.7083 5.93429 16.8118 6.17123 16.8354C6.40817 16.859 6.64611 16.8014 6.846 16.672C9.57805 14.9221 12.7556 13.9946 16 14C19.2437 13.995 22.4205 14.9225 25.152 16.672C25.564 16.936 26.112 16.888 26.458 16.542ZM22.092 20.908C22.544 20.456 22.462 19.698 21.892 19.408C20.0663 18.4812 18.0475 17.9988 16 18C13.88 18 11.876 18.508 10.108 19.408C9.538 19.698 9.456 20.456 9.908 20.908L9.938 20.938C10.258 21.258 10.752 21.318 11.16 21.118C12.667 20.3812 14.3225 19.9988 16 20C17.736 20 19.38 20.402 20.84 21.12C21.246 21.32 21.74 21.26 22.06 20.938L22.092 20.908ZM18.12 24.88C18.512 24.488 18.516 23.84 18.04 23.56C17.4226 23.1937 16.7179 23.0002 16 23C15.2821 23.0002 14.5774 23.1937 13.96 23.56C13.484 23.84 13.488 24.488 13.88 24.88L15.292 26.292C15.4795 26.4795 15.7338 26.5848 15.999 26.5848C16.2642 26.5848 16.5185 26.4795 16.706 26.292L18.12 24.88Z" fill="#2DEE0E"/>
</svg>
