<svg width="32" height="33" viewBox="0 0 32 33" fill="none" xmlns="http://www.w3.org/2000/svg">
<g clip-path="url(#clip0_583_98)">
<path fill-rule="evenodd" clip-rule="evenodd" d="M2 16.5C2 20.213 3.475 23.774 6.1005 26.3995C8.72601 29.025 12.287 30.5 16 30.5C19.713 30.5 23.274 29.025 25.8995 26.3995C28.525 23.774 30 20.213 30 16.5C30 12.787 28.525 9.22601 25.8995 6.6005C23.274 3.975 19.713 2.5 16 2.5C12.287 2.5 8.72601 3.975 6.1005 6.6005C3.475 9.22601 2 12.787 2 16.5ZM32 16.5C32 20.7435 30.3143 24.8131 27.3137 27.8137C24.3131 30.8143 20.2435 32.5 16 32.5C11.7565 32.5 7.68687 30.8143 4.68629 27.8137C1.68571 24.8131 0 20.7435 0 16.5C0 12.2565 1.68571 8.18687 4.68629 5.18629C7.68687 2.18571 11.7565 0.5 16 0.5C20.2435 0.5 24.3131 2.18571 27.3137 5.18629C30.3143 8.18687 32 12.2565 32 16.5ZM23 15.5C23.2652 15.5 23.5196 15.6054 23.7071 15.7929C23.8946 15.9804 24 16.2348 24 16.5C24 16.7652 23.8946 17.0196 23.7071 17.2071C23.5196 17.3946 23.2652 17.5 23 17.5H11.414L15.708 21.792C15.801 21.885 15.8747 21.9954 15.925 22.1168C15.9754 22.2383 16.0013 22.3685 16.0013 22.5C16.0013 22.6315 15.9754 22.7617 15.925 22.8832C15.8747 23.0046 15.801 23.115 15.708 23.208C15.615 23.301 15.5046 23.3747 15.3832 23.425C15.2617 23.4754 15.1315 23.5013 15 23.5013C14.8685 23.5013 14.7383 23.4754 14.6168 23.425C14.4954 23.3747 14.385 23.301 14.292 23.208L8.292 17.208C8.19887 17.1151 8.12499 17.0048 8.07457 16.8833C8.02416 16.7618 7.99821 16.6315 7.99821 16.5C7.99821 16.3685 8.02416 16.2382 8.07457 16.1167C8.12499 15.9952 8.19887 15.8849 8.292 15.792L14.292 9.792C14.4798 9.60423 14.7344 9.49874 15 9.49874C15.2656 9.49874 15.5202 9.60423 15.708 9.792C15.8958 9.97977 16.0013 10.2344 16.0013 10.5C16.0013 10.7656 15.8958 11.0202 15.708 11.208L11.414 15.5H23Z" fill="black"/>
</g>
<defs>
<clipPath id="clip0_583_98">
<rect width="32" height="32" fill="white" transform="translate(0 0.5)"/>
</clipPath>
</defs>
</svg>
