<svg width="50" height="22" viewBox="0 0 50 22" fill="none" xmlns="http://www.w3.org/2000/svg">
<path d="M11.1166 1.21902C12.0006 3.30123 1.39292 0.17792 1.39292 1.21902C1.39292 2.26013 0.508946 9.54793 1.39292 10.589M1.39292 19.9589C0.50885 17.8768 1.39292 10.589 1.39292 10.589M1.39292 10.589C1.39292 10.589 6.69667 11.6301 8.46471 10.589M23.4923 18.9178C22.6083 18.9178 22.6083 10.589 23.4923 8.50675C24.3762 6.42454 26.1442 7.46565 27.0282 8.50675C27.9121 9.54786 27.9121 11.6301 27.0282 12.6712C26.1442 13.7123 24.3762 12.6712 24.3762 12.6712C24.3762 12.6712 27.9121 17.8767 27.9121 18.9178M31.448 19.9589C33.216 18.9178 30.5641 7.46565 31.448 6.42454C32.332 5.38344 35.8679 12.6712 35.8679 12.6712C35.8679 12.6712 36.7519 5.38344 37.6358 5.38344C38.5198 5.38344 39.4038 19.9589 37.6358 21M48.2435 6.42454C47.3596 7.46565 43.8237 5.38344 42.9397 6.42454C42.0557 7.46565 42.0557 10.589 42.0557 11.6301C42.0557 12.6712 46.4756 12.6712 48.2435 12.6712C50.0115 12.6712 48.2435 16.8356 47.3596 17.8767C46.4756 18.9178 42.0557 19.9589 42.0557 19.9589C42.0557 19.9589 42.9397 18.9178 42.0557 18.9178C41.1717 18.9178 41.1717 18.9178 41.1717 18.9178M12.8846 8.50675C12.0006 9.54786 12.0006 17.8767 12.8846 18.9178C13.7686 19.9589 17.3044 19.9589 18.1884 18.9178C19.0724 17.8767 19.0724 9.54786 18.1884 8.50675C17.3044 7.46565 13.7686 7.46565 12.8846 8.50675Z" stroke="black"/>
</svg>
