<svg width="32" height="33" viewBox="0 0 32 33" fill="none" xmlns="http://www.w3.org/2000/svg">
<path d="M21.412 7.08799C19.6345 6.69714 17.82 6.49999 16 6.49999C10.518 6.49999 5.44601 8.26399 1.32601 11.258C1.2137 11.3419 1.12092 11.4492 1.05406 11.5724C0.987204 11.6957 0.947857 11.832 0.938732 11.9719C0.929608 12.1118 0.950922 12.252 1.00121 12.3829C1.05149 12.5138 1.12955 12.6322 1.23001 12.73C1.40521 12.9014 1.63533 13.0055 1.87976 13.0238C2.1242 13.0421 2.36725 12.9734 2.56601 12.83C6.47642 10.0082 11.1778 8.49288 16 8.49999C17.2613 8.49999 18.496 8.59866 19.704 8.79599L21.412 7.08799ZM16 12.5C12.19 12.5 8.64001 13.62 5.66801 15.552C5.54912 15.6322 5.44971 15.7381 5.37711 15.8618C5.3045 15.9855 5.26054 16.1239 5.24845 16.2668C5.23637 16.4098 5.25646 16.5536 5.30726 16.6877C5.35806 16.8219 5.43828 16.9429 5.54201 17.042C5.71242 17.2083 5.9343 17.3118 6.17124 17.3354C6.40819 17.359 6.64612 17.3014 6.84601 17.172C8.96741 15.8126 11.3659 14.9448 13.866 14.632L16 12.5ZM21.192 15.308L22.762 13.738C24.0247 14.2207 25.2147 14.8253 26.332 15.552C26.4503 15.6327 26.5491 15.7388 26.6213 15.8624C26.6935 15.9861 26.7372 16.1243 26.7492 16.267C26.7613 16.4097 26.7414 16.5533 26.691 16.6874C26.6407 16.8214 26.5611 16.9426 26.458 17.042C26.2876 17.2083 26.0657 17.3118 25.8288 17.3354C25.5918 17.359 25.3539 17.3014 25.154 17.172C23.9198 16.3826 22.5888 15.7561 21.194 15.308H21.192ZM16 20.5L17.866 18.634C19.2685 18.8364 20.6284 19.2667 21.892 19.908C22.462 20.198 22.544 20.956 22.092 21.408L22.062 21.438C21.9027 21.5919 21.6991 21.6921 21.4799 21.7244C21.2608 21.7567 21.037 21.7195 20.84 21.618C19.333 20.8812 17.6775 20.4987 16 20.5ZM25.81 10.69L27.304 9.19599C28.4853 9.79732 29.6087 10.484 30.674 11.256C30.7865 11.3401 30.8794 11.4476 30.9463 11.5711C31.0132 11.6946 31.0525 11.8311 31.0614 11.9713C31.0704 12.1114 31.0487 12.2519 30.9981 12.3829C30.9474 12.5139 30.8689 12.6323 30.768 12.73C30.5928 12.9014 30.3627 13.0055 30.1183 13.0238C29.8738 13.0421 29.6308 12.9734 29.432 12.83C28.2926 12.0075 27.0802 11.2912 25.81 10.69ZM18.04 24.06C18.516 24.34 18.512 24.988 18.12 25.38L16.706 26.792C16.5185 26.9795 16.2642 27.0848 15.999 27.0848C15.7338 27.0848 15.4795 26.9795 15.292 26.792L13.878 25.378C13.488 24.988 13.484 24.342 13.958 24.058C14.5762 23.692 15.2816 23.4992 16 23.5C16.748 23.5 17.444 23.704 18.04 24.06ZM26.75 4.24999C26.9489 4.05108 27.2187 3.93933 27.5 3.93933C27.7813 3.93933 28.0511 4.05108 28.25 4.24999C28.4489 4.4489 28.5607 4.71869 28.5607 4.99999C28.5607 5.2813 28.4489 5.55108 28.25 5.74999L6.75001 27.25C6.65152 27.3485 6.53459 27.4266 6.40591 27.4799C6.27722 27.5332 6.1393 27.5606 6.00001 27.5606C5.86072 27.5606 5.7228 27.5332 5.59411 27.4799C5.46543 27.4266 5.3485 27.3485 5.25001 27.25C5.15152 27.1515 5.07339 27.0346 5.02009 26.9059C4.96679 26.7772 4.93935 26.6393 4.93935 26.5C4.93935 26.3607 4.96679 26.2228 5.02009 26.0941C5.07339 25.9654 5.15152 25.8485 5.25001 25.75L26.75 4.24999Z" fill="#E40D0D"/>
</svg>
